<svg xmlns="http://www.w3.org/2000/svg" width="1200" height="630" viewBox="0 0 1200 630">
  <rect width="1200" height="630" fill="#f1ece2"/>
  <g stroke="#17130f" stroke-width="1" opacity=".12">
    <path d="M0 90h1200M0 180h1200M0 270h1200M0 360h1200M0 450h1200M0 540h1200"/>
    <path d="M100 0v630M200 0v630M300 0v630M400 0v630M500 0v630M600 0v630M700 0v630M800 0v630M900 0v630M1000 0v630M1100 0v630"/>
  </g>
  <text x="70" y="130" fill="#756b5c" font-family="monospace" font-size="24" letter-spacing="8">ARYAN / BUILDER · AUTHOR · FOUNDER</text>
  <text x="70" y="325" fill="#17130f" font-family="Arial, sans-serif" font-size="125" font-weight="500" letter-spacing="-8">BUILT SIX PROJECTS.</text>
  <text x="70" y="450" fill="#17130f" font-family="Arial, sans-serif" font-size="100" font-weight="500" letter-spacing="-6">AGED 15 TO 17.</text>
  <rect x="70" y="505" width="620" height="72" fill="#050505"/>
  <text x="105" y="552" fill="#f2f4f7" font-family="monospace" font-size="21" letter-spacing="6">AI SYSTEMS · FICTION · INFRASTRUCTURE</text>
  <path d="M980 130l30 34-30 34M1028 198h72" fill="none" stroke="#17130f" stroke-width="8"/>
</svg>
